<?xml version="1.0" standalone="no"?>
<!DOCTYPE svg PUBLIC "-//W3C//DTD SVG 20010904//EN"
 "http://www.w3.org/TR/2001/REC-SVG-20010904/DTD/svg10.dtd">
<svg version="1.0" xmlns="http://www.w3.org/2000/svg"
 width="512.000000pt" height="512.000000pt" viewBox="0 0 512.000000 512.000000"
 preserveAspectRatio="xMidYMid meet">
<metadata>
Created by potrace 1.14, written by Peter Selinger 2001-2017
</metadata>
<g transform="translate(0.000000,512.000000) scale(0.100000,-0.100000)"
fill="#000000" stroke="none">
<path d="M1498 3934 c-5 -4 -8 -40 -8 -79 l0 -72 122 -12 c146 -14 185 -30
213 -86 20 -39 20 -63 23 -1165 2 -766 -1 -1141 -8 -1176 -11 -54 -37 -86 -80
-100 -14 -4 -79 -12 -145 -18 l-120 -11 -3 -80 -3 -80 681 -1 680 0 0 82 0 81
-130 7 c-210 12 -242 29 -260 141 -6 34 -10 279 -10 557 l0 496 83 7 c45 4
183 5 307 3 204 -3 229 -5 265 -24 59 -30 80 -79 95 -219 l12 -115 83 0 82 0
-1 445 -1 446 -80 -3 -79 -3 -17 -127 c-9 -70 -22 -134 -29 -143 -7 -8 -29
-19 -49 -25 -52 -15 -351 -24 -523 -15 l-148 7 0 513 0 513 156 7 c85 4 262 5
392 2 250 -6 361 -21 393 -54 13 -13 22 -58 34 -173 9 -85 20 -159 24 -163 5
-4 39 -7 77 -5 l69 3 29 304 c28 288 29 304 12 316 -28 21 -281 28 -721 20
-476 -9 -1153 -8 -1305 1 -58 3 -108 3 -112 -2z"/>
</g>
</svg>
